# xmcd CD database file
#
# Track frame offsets:
#	150
#	22135
#	42690
#	58932
#	79792
#	103362
#	126005
#	151892
#	168697
#
# Disc length: 2603 seconds
#
# Revision: 1
# Processed by: cddbd v1.5.1PL0 Copyright (c) Steve Scherf et al.
# Submitted via: CDex 1.51
#
DISCID=800a2909
DTITLE=Louis Bellson - The Originals
DYEAR=1995
DGENRE=Jazz
TTITLE0=Early Summer
TTITLE1=Hormone
TTITLE2=Ballade
TTITLE3=Wick Dippers
TTITLE4=Interface
TTITLE5=Elling-Stray Lament
TTITLE6=Ike and Mike
TTITLE7=Four Plus More
TTITLE8=Take The "A" Train
EXTD=YEAR: 1995
EXTT0=
EXTT1=
EXTT2=
EXTT3=
EXTT4=
EXTT5=
EXTT6=
EXTT7=
EXTT8=
PLAYORDER=
